<?xml version="1.0" encoding="UTF-8"?><svg xmlns="http://www.w3.org/2000/svg" xmlns:xlink="http://www.w3.org/1999/xlink" version="1.1" id="Layer_1" x="0px" y="0px" viewBox="0 0 16 16" xml:space="preserve"><path d="M9 13.5c3.59 0 6.5-2.686 6.5-6s-2.91-6-6.5-6-6.5 2.686-6.5 6c0 0 .469 3-2 3 0 2.5 4.5 3 8.5 3" fill="#BBDEFB"/><path d="M9 14c-6.056 0-9-1.145-9-3.5a.5.5 0 0 1 .5-.5c.496 0 .858-.142 1.107-.432.584-.683.401-1.978.399-1.991C2 3.916 5.14 1 9 1c3.859 0 7 2.916 7 6.5S12.859 14 9 14zm-7.924-3.052C1.552 12.293 4.268 13 9 13c3.309 0 6-2.468 6-5.5C15 4.467 12.309 2 9 2S3 4.467 3 7.5c.006 0 .255 1.681-.633 2.718a2.179 2.179 0 0 1-1.291.73z" fill="#455A64"/><g fill="#37474F"><circle cx="11" cy="14" r="2"/><circle cx="5" cy="14" r="2"/></g><path d="M7.02 6.5c-.276 0-.505-.224-.505-.5s.219-.5.495-.5h.01a.5.5 0 0 1 0 1z" fill="#455A64"/><path d="M11.02 6.5c-.275 0-.505-.224-.505-.5s.219-.5.495-.5h.01a.5.5 0 0 1 0 1z" fill="#455A64"/><path d="M9 11a3.046 3.046 0 0 1-2.988-2.39.501.501 0 0 1 .976-.22A2.051 2.051 0 0 0 9 10a2.05 2.05 0 0 0 2.012-1.61.5.5 0 0 1 .977.22A3.047 3.047 0 0 1 9 11z" fill="#455A64"/><metadata><rdf:RDF xmlns:rdf="http://www.w3.org/1999/02/22-rdf-syntax-ns#" xmlns:rdfs="http://www.w3.org/2000/01/rdf-schema#" xmlns:dc="http://purl.org/dc/elements/1.1/"><rdf:Description about="https://iconscout.com/legal#licenses" dc:title="waze,logo,color,e" dc:description="waze,logo,color,e" dc:publisher="Iconscout" dc:date="2018-02-17" dc:format="image/svg+xml" dc:language="en"><dc:creator><rdf:Bag><rdf:li>Pixel Icons</rdf:li></rdf:Bag></dc:creator></rdf:Description></rdf:RDF></metadata></svg>